<?xml version="1.0" encoding="UTF-8"?>
<svg version="1.1" xmlns="http://www.w3.org/2000/svg" width="24" height="24" viewBox="0 0 512 512">
<path d="M0 0 C0.9398877 0.16097168 1.87977539 0.32194336 2.84814453 0.48779297 C47.24344881 8.42451146 89.46003528 28.87163011 123 59 C123.52029785 59.46535156 124.0405957 59.93070313 124.57666016 60.41015625 C134.54808081 69.34942069 143.62854356 78.5245669 152 89 C152.63550781 89.75667969 153.27101563 90.51335937 153.92578125 91.29296875 C180.62351048 123.40762854 197.98294999 164.02857587 205 205 C205.16226074 205.93859863 205.32452148 206.87719727 205.49169922 207.84423828 C215.74908613 270.24598836 201.60435236 338.04786648 165 389.875 C163.0286426 392.60532527 161.02270759 395.30756649 159 398 C158.54657227 398.61037109 158.09314453 399.22074219 157.62597656 399.84960938 C145.64378594 415.90171865 131.71124707 430.58326594 116 443 C115.38334473 443.49306641 114.76668945 443.98613281 114.13134766 444.49414062 C103.58361973 452.90329015 92.72405481 460.32730654 81 467 C80.25024902 467.42909668 79.50049805 467.85819336 78.72802734 468.30029297 C52.58205865 483.09598685 23.63790468 492.40576538 -6 497 C-6.71736328 497.11714355 -7.43472656 497.23428711 -8.17382812 497.35498047 C-71.32862668 507.27635755 -138.37772995 489.36169649 -189.99853516 452.48291016 C-196.61886503 447.64780265 -202.88966107 442.4612126 -209 437 C-209.52464844 436.53174805 -210.04929687 436.06349609 -210.58984375 435.58105469 C-220.55588222 426.6445153 -229.63227842 417.47075957 -238 407 C-238.63550781 406.24332031 -239.27101562 405.48664063 -239.92578125 404.70703125 C-266.67889421 372.52575044 -283.83522663 332.00918331 -291 291 C-291.24339111 289.65663574 -291.24339111 289.65663574 -291.49169922 288.28613281 C-296.19114747 261.31159083 -295.87631224 231.91414444 -291 205 C-290.83902832 204.07864258 -290.67805664 203.15728516 -290.51220703 202.20800781 C-282.51703026 157.76987834 -262.17337446 115.59006539 -232 82 C-231.53464844 81.47970215 -231.06929687 80.9594043 -230.58984375 80.42333984 C-221.65057931 70.45191919 -212.4754331 61.37145644 -202 53 C-201.24332031 52.36449219 -200.48664063 51.72898438 -199.70703125 51.07421875 C-167.59237146 24.37648952 -126.97142413 7.01705001 -86 0 C-85.06140137 -0.16226074 -84.12280273 -0.32452148 -83.15576172 -0.49169922 C-55.98839564 -4.95737822 -27.10890193 -4.68646596 0 0 Z" fill="#FEFEFE" transform="translate(299,8)"/>
<path d="M0 0 C0.9398877 0.16097168 1.87977539 0.32194336 2.84814453 0.48779297 C47.24344881 8.42451146 89.46003528 28.87163011 123 59 C123.52029785 59.46535156 124.0405957 59.93070313 124.57666016 60.41015625 C134.54808081 69.34942069 143.62854356 78.5245669 152 89 C152.63550781 89.75667969 153.27101563 90.51335937 153.92578125 91.29296875 C167.48254972 107.6003859 178.17063932 126.25145403 186.9375 145.5 C187.30319092 146.30034668 187.66888184 147.10069336 188.0456543 147.92529297 C190.5588465 153.5956939 192.18910627 158.96368757 194 165 C37.58 165 -118.84 165 -280 165 C-277.96338935 158.21129783 -275.91375478 152.00633697 -273 145.625 C-272.60901123 144.76777344 -272.21802246 143.91054687 -271.81518555 143.02734375 C-261.47560759 120.73307374 -248.4374611 100.29876184 -232 82 C-231.53464844 81.47970215 -231.06929687 80.9594043 -230.58984375 80.42333984 C-221.65057931 70.45191919 -212.4754331 61.37145644 -202 53 C-201.24332031 52.36449219 -200.48664063 51.72898438 -199.70703125 51.07421875 C-167.59237146 24.37648952 -126.97142413 7.01705001 -86 0 C-85.06140137 -0.16226074 -84.12280273 -0.32452148 -83.15576172 -0.49169922 C-55.98839564 -4.95737822 -27.10890193 -4.68646596 0 0 Z" fill="#249F49" transform="translate(299,8)"/>
<path d="M0 0 C156.42 0 312.84 0 474 0 C471.96335136 6.78882882 469.91344143 12.99345395 467 19.375 C466.61046143 20.23005127 466.22092285 21.08510254 465.81958008 21.96606445 C458.37926499 38.02240826 449.6256623 52.85614182 439 67 C438.54657227 67.61037109 438.09314453 68.22074219 437.62597656 68.84960938 C425.64378594 84.90171865 411.71124707 99.58326594 396 112 C395.38334473 112.49306641 394.76668945 112.98613281 394.13134766 113.49414062 C383.58361973 121.90329015 372.72405481 129.32730654 361 136 C360.25024902 136.42909668 359.50049805 136.85819336 358.72802734 137.30029297 C332.58205865 152.09598685 303.63790468 161.40576538 274 166 C273.28263672 166.11714355 272.56527344 166.23428711 271.82617188 166.35498047 C208.67137332 176.27635755 141.62227005 158.36169649 90.00146484 121.48291016 C83.38113497 116.64780265 77.11033893 111.4612126 71 106 C70.47535156 105.53174805 69.95070313 105.06349609 69.41015625 104.58105469 C59.44411778 95.6445153 50.36772158 86.47075957 42 76 C41.36449219 75.24332031 40.72898438 74.48664063 40.07421875 73.70703125 C26.51745028 57.3996141 15.82936068 38.74854597 7.0625 19.5 C6.69680908 18.69965332 6.33111816 17.89930664 5.9543457 17.07470703 C3.4411535 11.4043061 1.81089373 6.03631243 0 0 Z" fill="#D82027" transform="translate(19,339)"/>
<path d="M0 0 C2.80171121 1.02807173 4.64453072 1.72237087 6.93838692 3.71127987 C7.45353772 6.81670726 7.62940762 9.38540209 7.59781075 12.49716854 C7.60829445 13.39493511 7.61877815 14.29270168 7.62957954 15.2176733 C7.65840774 18.18854663 7.65202894 21.15826004 7.64541817 24.12924862 C7.65852849 26.18763858 7.67383065 28.24601566 7.69124031 30.30437374 C7.73118095 35.72464403 7.74128661 41.14457849 7.74527168 46.5649786 C7.75458603 52.09496972 7.79198889 57.62476209 7.82705879 63.15463924 C7.89172697 74.00684343 7.92489136 84.85889988 7.93838692 95.71127987 C9.70751623 93.98289392 11.47084835 92.24919333 13.23135567 90.51206112 C13.72824898 90.02773617 14.22514229 89.54341122 14.73709297 89.04440975 C19.14461547 84.68076139 22.20985697 80.24788873 24.93838692 74.71127987 C25.74082832 73.08706112 25.74082832 73.08706112 26.55948067 71.43002987 C34.03631729 55.22125215 35.41317992 37.63295531 29.66250801 20.60776424 C27.92877805 16.06709858 25.6463196 11.80402993 23.32901192 7.53940487 C21.93838692 4.71127987 21.93838692 4.71127987 21.93838692 1.71127987 C32.7021663 12.52489156 39.20793919 23.9159448 42.93838692 38.71127987 C43.19773018 39.65825741 43.19773018 39.65825741 43.4623127 40.62436581 C47.16059152 56.83610293 42.33310927 73.19575173 34.50088692 87.33627987 C28.69081878 96.53344013 21.79832147 103.78131259 11.93838692 108.71127987 C12.55326973 108.91624081 13.16815254 109.12120174 13.80166817 109.33237362 C17.18057442 110.4586757 20.55948067 111.58497779 23.93838692 112.71127987 C26.67127985 112.93925549 29.38880896 113.12796174 32.12588692 113.27377987 C33.25027168 113.33855526 33.25027168 113.33855526 34.39737129 113.40463924 C36.24417067 113.51050672 38.09125526 113.61137747 39.93838692 113.71127987 C36.30702647 117.34264031 30.88980525 117.25975157 25.93838692 117.71127987 C24.42085189 117.68181967 22.90364721 117.6285042 21.38760567 117.55502987 C12.92789376 116.76994094 12.92789376 116.76994094 5.23135567 119.48471737 C3.50650832 121.48708598 2.14334857 123.36422413 0.93838692 125.71127987 C-3.09971753 124.36524505 -4.53456385 122.05791264 -7.06161308 118.71127987 C-7.06161308 118.05127987 -7.06161308 117.39127987 -7.06161308 116.71127987 C-7.93076347 116.95249569 -7.93076347 116.95249569 -8.81747246 117.19858456 C-19.15814738 119.56101029 -31.15225907 117.97553766 -41.06161308 114.71127987 C-41.06161308 114.38127987 -41.06161308 114.05127987 -41.06161308 113.71127987 C-40.38582207 113.65593075 -39.71003105 113.60058163 -39.01376152 113.54355526 C-35.9460861 113.29037456 -32.87885713 113.03213197 -29.81161308 112.77377987 C-28.74813652 112.68676815 -27.68465996 112.59975643 -26.58895683 112.51010799 C-25.56415215 112.42309628 -24.53934746 112.33608456 -23.48348808 112.24643612 C-22.06954765 112.12860775 -22.06954765 112.12860775 -20.62704277 112.00839901 C-18.35411786 111.74515675 -16.26085714 111.32896879 -14.06161308 110.71127987 C-14.67907402 110.31038143 -15.29653496 109.90948299 -15.93270683 109.49643612 C-30.49484671 99.72184908 -40.50143745 86.84414313 -45.06161308 69.71127987 C-48.45493154 50.85181607 -46.14762881 33.960907 -36.04208183 17.51987362 C-32.77506771 12.88677075 -29.01556061 8.76385194 -25.06161308 4.71127987 C-24.40161308 5.04127987 -23.74161308 5.37127987 -23.06161308 5.71127987 C-23.64169121 6.62006893 -23.64169121 6.62006893 -24.23348808 7.54721737 C-34.11231597 23.44137115 -37.87309818 40.40267447 -33.62533379 58.87924862 C-29.82265163 73.79940192 -22.82409072 88.42007605 -10.06161308 97.71127987 C-10.06613739 96.00239086 -10.06613739 96.00239086 -10.0707531 94.25897884 C-10.09463643 83.51783891 -10.08181816 72.7772849 -10.03314686 62.0362215 C-10.00930189 56.51414325 -9.99834926 50.99266861 -10.01693535 45.47055721 C-10.03439981 40.14039543 -10.01790038 34.81131772 -9.97793579 29.48128796 C-9.96864786 27.44877269 -9.97155971 25.41616356 -9.9869194 23.38368511 C-10.00636359 20.53382939 -9.9822749 17.68739244 -9.94808769 14.83774471 C-9.96390388 13.99904842 -9.97972008 13.16035213 -9.99601555 12.29624081 C-9.91599788 8.82545776 -9.730 Garlic2772 6.5860173 -7.58483887 3.77938366 C-3.06104703 -0.4286866 -3.06104703 -0.4286866 0 0 Z" fill="#D8242B" transform="translate(257.06161308288574,200.2887201309204)"/>
<path d="M0 0 C0.66 0.33 1.32 0.66 2 1 C1.03900391 1.80050781 1.03900391 1.80050781 0.05859375 2.6171875 C-13.99148954 14.71994181 -21.79699598 29.60193939 -24 48 C-24.81781937 65.42145442 -21.79700494 80.38923641 -12.0390625 95.07421875 C-11.69617188 95.70972656 -11.35328125 96.34523438 -11 97 C-11.33 97.66 -11.66 98.32 -12 99 C-25.4205707 89.26171741 -34.05792381 77.36071704 -37.56640625 60.9296875 C-39.625316 47.01813515 -36.53221236 33.85824878 -29 22 C-21.58118632 12.00636709 -11.88439397 4.04575114 0 0 Z" fill="#D9262D" transform="translate(223,201)"/>
<path d="M0 0 C14.24104711 3.18151052 24.57913206 12.33738513 32.3125 24.4375 C35.29378498 29.4881475 37.637827 34.29296483 39 40 C39.3403125 41.3921875 39.3403125 41.3921875 39.6875 42.8125 C41.18273152 58.06386153 38.73858068 73.28529053 28.99609375 85.515625 C24.18991813 91.09914728 18.98942513 95.72386196 13 100 C13 96.26610085 14.07362457 95.16285082 16.1875 92.125 C26.56162343 76.27973643 27.70388118 58.740917 25.57421875 40.31640625 C22.24258675 25.25252415 13.30383667 11.95025112 1.46875 2.27734375 C0.9840625 1.85582031 0.499375 1.43429688 0 1 C0 0.67 0 0.34 0 0 Z" fill="#D9262C" transform="translate(286,202)"/>
<path d="M0 0 C0.99 0.495 0.99 0.495 2 1 C2 1.66 2 2.32 2 3 C4.81227622 3.93742541 6.58746844 4.13470844 9.5 4.125 C10.2734375 4.12757813 11.046875 4.13015625 11.84375 4.1328125 C14.18447017 4.08145813 14.18447017 4.08145813 17 3 C17.66 3.33 18.32 3.66 19 4 C21.07564676 4.19758231 21.07564676 4.19758231 23.375 4.1875 C24.14585937 4.20167969 24.91671875 4.21585938 25.7109375 4.23046875 C29.36262475 3.86280741 31.43042646 2.56957354 34 0 C33.7579806 4.11432986 33.32870991 6.5318374 30.9375 9.9375 C26.88865025 12.7803094 24.88606452 12.46533948 20 12 C19.236875 11.79375 18.47375 11.5875 17.6875 11.375 C17.130625 11.25125 16.57375 11.1275 16 11 C15.01 11.66 14.02 12.32 13 13 C8.37637916 13.50256748 5.6801089 12.86230692 2 10 C-0.33287288 6.77841364 -0.17683757 3.89042645 0 0 Z" fill="#DA2B32" transform="translate(239,187)"/>
<path d="M0 0 C0.66 0.33 1.32 0.66 2 1 C-6.91 9.91 -15.82 18.82 -25 28 C-25.66 27.67 -26.32 27.34 -27 27 C-18.40135601 17.51620148 -9.76517923 8.31079083 0 0 Z" fill="#56B674" transform="translate(94,63)"/>
<path d="M0 0 C0.66 0.33 1.32 0.66 2 1 C0.35 3.64 -1.3 6.28 -3 9 C-3.66 7.68 -4.32 6.36 -5 5 C-3.35 3.35 -1.7 1.7 0 0 Z" fill="#E2595E" transform="translate(232,205)"/>
</svg>